<svg width="34" height="34" viewBox="0 0 34 34" fill="none" xmlns="http://www.w3.org/2000/svg">
<circle cx="17" cy="17" r="16.75" stroke="#EEEEEE" stroke-width="0.5"/>
<path d="M20.7799 12.3678C20.6118 12.3678 20.4474 12.4177 20.3077 12.5111C20.1679 12.6045 20.0589 12.7372 19.9946 12.8925C19.9303 13.0479 19.9134 13.2188 19.9462 13.3837C19.979 13.5485 20.06 13.7 20.1789 13.8189C20.2977 13.9377 20.4492 14.0187 20.6141 14.0515C20.779 14.0843 20.9499 14.0675 21.1052 14.0031C21.2605 13.9388 21.3932 13.8298 21.4866 13.6901C21.58 13.5503 21.6299 13.3859 21.6299 13.2178C21.6299 12.9924 21.5403 12.7762 21.3809 12.6168C21.2215 12.4574 21.0053 12.3678 20.7799 12.3678ZM24.0382 14.082C24.0245 13.4943 23.9144 12.9128 23.7124 12.3607C23.5323 11.8884 23.252 11.4606 22.8907 11.107C22.54 10.7439 22.1112 10.4654 21.637 10.2924C21.0864 10.0843 20.5042 9.97168 19.9157 9.95949C19.1649 9.91699 18.9241 9.91699 16.9974 9.91699C15.0707 9.91699 14.8299 9.91699 14.0791 9.95949C13.4905 9.97168 12.9084 10.0843 12.3578 10.2924C11.8844 10.4671 11.4561 10.7454 11.1041 11.107C10.741 11.4577 10.4624 11.8865 10.2895 12.3607C10.0813 12.9114 9.96875 13.4935 9.95656 14.082C9.91406 14.8328 9.91406 15.0737 9.91406 17.0003C9.91406 18.927 9.91406 19.1678 9.95656 19.9187C9.96875 20.5072 10.0813 21.0893 10.2895 21.6399C10.4624 22.1142 10.741 22.5429 11.1041 22.8937C11.4561 23.2552 11.8844 23.5335 12.3578 23.7082C12.9084 23.9164 13.4905 24.029 14.0791 24.0412C14.8299 24.0837 15.0707 24.0837 16.9974 24.0837C18.9241 24.0837 19.1649 24.0837 19.9157 24.0412C20.5042 24.029 21.0864 23.9164 21.637 23.7082C22.1112 23.5353 22.54 23.2567 22.8907 22.8937C23.2536 22.5413 23.5341 22.1132 23.7124 21.6399C23.9144 21.0878 24.0245 20.5064 24.0382 19.9187C24.0382 19.1678 24.0807 18.927 24.0807 17.0003C24.0807 15.0737 24.0807 14.8328 24.0382 14.082ZM22.7632 19.8337C22.7581 20.2833 22.6766 20.7288 22.5224 21.1512C22.4093 21.4594 22.2276 21.738 21.9911 21.9657C21.7614 22.1999 21.4834 22.3811 21.1766 22.497C20.7542 22.6512 20.3087 22.7327 19.8591 22.7378C19.1507 22.7732 18.8886 22.7803 17.0257 22.7803C15.1628 22.7803 14.9007 22.7803 14.1924 22.7378C13.7255 22.7466 13.2607 22.6747 12.8182 22.5253C12.5248 22.4035 12.2596 22.2227 12.0391 21.9941C11.804 21.7665 11.6246 21.4878 11.5149 21.1795C11.342 20.7511 11.246 20.2955 11.2316 19.8337C11.2316 19.1253 11.1891 18.8632 11.1891 17.0003C11.1891 15.1374 11.1891 14.8753 11.2316 14.167C11.2347 13.7073 11.3187 13.2518 11.4795 12.8212C11.6042 12.5222 11.7956 12.2557 12.0391 12.042C12.2543 11.7984 12.5202 11.605 12.8182 11.4753C13.25 11.3195 13.7051 11.2381 14.1641 11.2345C14.8724 11.2345 15.1345 11.192 16.9974 11.192C18.8603 11.192 19.1224 11.192 19.8307 11.2345C20.2804 11.2396 20.7259 11.3211 21.1482 11.4753C21.4701 11.5948 21.759 11.789 21.9911 12.042C22.2233 12.2596 22.4046 12.5256 22.5224 12.8212C22.6798 13.2525 22.7613 13.7078 22.7632 14.167C22.7986 14.8753 22.8057 15.1374 22.8057 17.0003C22.8057 18.8632 22.7986 19.1253 22.7632 19.8337ZM16.9974 13.3666C16.279 13.368 15.5772 13.5823 14.9805 13.9824C14.3839 14.3825 13.9192 14.9505 13.6453 15.6147C13.3714 16.2788 13.3004 17.0092 13.4414 17.7136C13.5824 18.418 13.9291 19.0648 14.4375 19.5723C14.946 20.0797 15.5935 20.4251 16.2982 20.5648C17.0029 20.7044 17.7331 20.632 18.3967 20.3568C19.0603 20.0816 19.6274 19.6158 20.0263 19.0184C20.4253 18.421 20.6382 17.7187 20.6382 17.0003C20.6392 16.5223 20.5456 16.0488 20.3629 15.607C20.1801 15.1653 19.9119 14.764 19.5735 14.4263C19.2351 14.0886 18.8334 13.8211 18.3913 13.6392C17.9491 13.4574 17.4754 13.3647 16.9974 13.3666ZM16.9974 19.3591C16.5309 19.3591 16.0748 19.2207 15.6869 18.9616C15.299 18.7024 14.9967 18.334 14.8182 17.903C14.6397 17.472 14.593 16.9977 14.684 16.5402C14.775 16.0826 14.9996 15.6623 15.3295 15.3324C15.6594 15.0026 16.0797 14.7779 16.5372 14.6869C16.9948 14.5959 17.469 14.6426 17.9001 14.8211C18.3311 14.9997 18.6994 15.302 18.9586 15.6899C19.2178 16.0778 19.3561 16.5338 19.3561 17.0003C19.3561 17.3101 19.2951 17.6168 19.1766 17.903C19.0581 18.1892 18.8843 18.4492 18.6653 18.6682C18.4463 18.8872 18.1862 19.061 17.9001 19.1795C17.6139 19.2981 17.3072 19.3591 16.9974 19.3591Z" fill="#A5A5A5"/>
</svg>
