<svg width="34" height="34" viewBox="0 0 34 34" fill="none" xmlns="http://www.w3.org/2000/svg">
<circle cx="17" cy="17" r="16.75" stroke="#EEEEEE" stroke-width="0.5"/>
<g clip-path="url(#clip0_665_5526)">
<path d="M24.351 20.061C22.3055 19.7244 21.3837 17.6292 21.3464 17.5403L21.3378 17.5231C21.2336 17.3108 21.2087 17.1358 21.2661 17.0029C21.378 16.7409 21.8064 16.6051 22.0894 16.5152C22.1717 16.4894 22.2491 16.4645 22.3132 16.4396C22.5924 16.3297 22.7913 16.2101 22.9233 16.0753C23.0801 15.9137 23.1107 15.7588 23.1088 15.6584C23.104 15.4136 22.9166 15.1956 22.6173 15.0894C22.5114 15.0473 22.3984 15.0258 22.2845 15.0263C22.1779 15.0248 22.0722 15.0463 21.9747 15.0894C21.7356 15.2013 21.5214 15.2625 21.3369 15.2711C21.2642 15.2691 21.1925 15.2535 21.1255 15.2252L21.1437 14.9297L21.1466 14.8857C21.2125 13.8501 21.2938 12.562 20.9515 11.797C20.7312 11.2929 20.413 10.8375 20.0153 10.4573C19.6873 10.1487 19.3085 9.89895 18.8955 9.71912C18.3443 9.47863 17.7499 9.35303 17.1485 9.35001H17.1102L16.8473 9.35287C16.5078 9.35287 15.8279 9.40069 15.0983 9.72199C14.6865 9.90152 14.309 10.151 13.9823 10.4593C13.5866 10.8392 13.2698 11.2935 13.05 11.7961C12.7077 12.5601 12.7889 13.8482 12.854 14.8829V14.8848L12.875 15.2242C12.7957 15.2573 12.7103 15.2732 12.6245 15.2711C12.4313 15.2711 12.2018 15.2099 11.9427 15.0885C11.8612 15.0519 11.7728 15.0337 11.6835 15.0349C11.5222 15.0366 11.3642 15.0808 11.2255 15.163C11.0476 15.2673 10.9329 15.4136 10.9013 15.5771C10.8812 15.6842 10.8822 15.8974 11.1193 16.1136C11.2503 16.2321 11.4416 16.3421 11.6892 16.4396C11.7543 16.4655 11.8317 16.4894 11.913 16.5152C12.1961 16.6051 12.6254 16.7409 12.7373 17.0029C12.7937 17.1358 12.7689 17.3108 12.6646 17.5231L12.657 17.5403C12.4573 17.9717 12.1978 18.3728 11.8862 18.7318C11.6174 19.0485 11.3044 19.3248 10.9568 19.5522C10.5613 19.8097 10.1169 19.9826 9.65148 20.06C9.56426 20.0741 9.48537 20.12 9.43007 20.1889C9.37478 20.2578 9.34702 20.3448 9.35217 20.4329C9.35504 20.4855 9.36747 20.5381 9.38946 20.5888V20.5898C9.4631 20.7609 9.63235 20.9053 9.90775 21.0325C10.2444 21.1884 10.7473 21.3194 11.4043 21.4217C11.4378 21.4848 11.4722 21.6426 11.4961 21.7507C11.5209 21.8654 11.5468 21.984 11.5841 22.1093C11.6242 22.245 11.7275 22.4076 11.9943 22.4076C12.0957 22.4076 12.2114 22.3847 12.3462 22.3588C12.5432 22.3206 12.8128 22.268 13.1485 22.268C13.335 22.268 13.5281 22.2842 13.7222 22.3168C14.0971 22.3789 14.4203 22.6065 14.7942 22.8704C15.3412 23.2568 15.9608 23.6938 16.9075 23.6938L16.985 23.6909C17.0156 23.6928 17.0548 23.6938 17.0949 23.6938C18.0416 23.6938 18.6613 23.2568 19.2082 22.8714L19.2092 22.8704C19.5831 22.6075 19.9063 22.3799 20.2812 22.3177C20.4753 22.2852 20.6684 22.2689 20.8549 22.2689C21.1762 22.2689 21.4306 22.3101 21.6572 22.354C21.8054 22.3827 21.9202 22.3971 22.0091 22.3971H22.0263C22.1156 22.401 22.2036 22.374 22.2752 22.3205C22.3469 22.2669 22.3978 22.1903 22.4193 22.1035C22.4529 21.986 22.4823 21.8674 22.5073 21.7478C22.5293 21.6464 22.5656 21.4839 22.5981 21.4208C23.2551 21.3175 23.7581 21.1874 24.0947 21.0316C24.3691 20.9044 24.5384 20.76 24.612 20.5898C24.6341 20.5399 24.6471 20.4865 24.6503 20.432C24.6551 20.3441 24.6272 20.2575 24.5719 20.1889C24.5167 20.1204 24.4379 20.0748 24.351 20.061Z" fill="#A5A5A5"/>
</g>
<defs>
<clipPath id="clip0_665_5526">
<rect width="15.3" height="15.3" fill="white" transform="translate(9.35156 9.35001)"/>
</clipPath>
</defs>
</svg>
