<svg width="34" height="34" viewBox="0 0 34 34" fill="none" xmlns="http://www.w3.org/2000/svg">
<circle cx="17" cy="17" r="16.75" stroke="#F58634" stroke-width="0.5"/>
<path d="M24.0807 12.6082C23.5483 12.8392 22.9852 12.9919 22.4091 13.0616C23.0169 12.6984 23.4725 12.1271 23.6911 11.4537C23.1199 11.7937 22.4946 12.0333 21.8424 12.162C21.4064 11.6892 20.8259 11.3745 20.1918 11.2673C19.5578 11.16 18.906 11.2662 18.3388 11.5692C17.7716 11.8723 17.3211 12.355 17.0578 12.9417C16.7945 13.5285 16.7334 14.186 16.8841 14.8112C15.7291 14.7527 14.5993 14.452 13.5681 13.9285C12.5369 13.4049 11.6274 12.6704 10.8986 11.7724C10.643 12.2188 10.5087 12.7243 10.5091 13.2387C10.5082 13.7163 10.6254 14.1868 10.8503 14.6083C11.0752 15.0297 11.4009 15.3889 11.7982 15.6541C11.3364 15.6415 10.8844 15.5176 10.4807 15.2928V15.3282C10.4842 15.9975 10.7187 16.6451 11.1447 17.1614C11.5706 17.6777 12.1618 18.031 12.8182 18.1616C12.5655 18.2385 12.3032 18.279 12.0391 18.282C11.8562 18.2799 11.6739 18.2633 11.4936 18.2324C11.6806 18.8081 12.0423 19.3113 12.5286 19.6719C13.0148 20.0324 13.6013 20.2324 14.2066 20.2441C13.1846 21.0482 11.9228 21.4871 10.6224 21.4907C10.3856 21.4915 10.149 21.4773 9.91406 21.4482C11.2418 22.3055 12.7891 22.7606 14.3695 22.7587C15.4601 22.77 16.542 22.5639 17.5521 22.1524C18.5622 21.7409 19.4801 21.1322 20.2523 20.362C21.0245 19.5918 21.6355 18.6754 22.0496 17.6664C22.4637 16.6574 22.6726 15.576 22.6641 14.4853C22.6641 14.3649 22.6641 14.2374 22.6641 14.1099C23.2199 13.6954 23.6993 13.1872 24.0807 12.6082Z" fill="#F58634"/>
</svg>
