<svg width="41" height="41" viewBox="0 0 41 41" fill="none" xmlns="http://www.w3.org/2000/svg">
<g clip-path="url(#clip0_792_4462)">
<path d="M26.584 9.5625H14.084C11.4993 9.5625 9.39648 11.6653 9.39648 14.25V26.75C9.39648 29.3347 11.4993 31.4375 14.084 31.4375H26.584C29.1687 31.4375 31.2715 29.3347 31.2715 26.75V14.25C31.2715 11.6653 29.1687 9.5625 26.584 9.5625ZM28.1465 26.75C28.1465 27.6116 27.4455 28.3125 26.584 28.3125H14.084C13.2224 28.3125 12.5215 27.6116 12.5215 26.75V14.25C12.5215 13.3884 13.2224 12.6875 14.084 12.6875H18.7715V17.375C18.7715 18.238 19.471 18.9375 20.334 18.9375C21.197 18.9375 21.8965 18.238 21.8965 17.375V12.6875H26.584C27.4455 12.6875 28.1465 13.3884 28.1465 14.25V26.75Z" fill="#F58634"/>
<path d="M35.959 3.3125C35.096 3.3125 34.3965 4.01203 34.3965 4.875V5.88805C33.1027 4.67664 31.6402 3.63961 30.052 2.81562C27.1321 1.30078 23.7716 0.5 20.334 0.5C9.11898 0.5 0.333984 9.28508 0.333984 20.5C0.333984 21.6347 0.428438 22.7731 0.614766 23.8836C0.742969 24.6471 1.40453 25.1878 2.15391 25.1877C2.23977 25.1877 2.3268 25.1806 2.4143 25.1659C3.26539 25.0231 3.83945 24.2175 3.69672 23.3664C3.53891 22.4264 3.45898 21.462 3.45898 20.5C3.45898 11.0373 10.8714 3.625 20.334 3.625C26.322 3.625 31.5428 6.31203 34.6579 10.997C35.0393 11.5708 35.7515 11.8268 36.4109 11.6277C37.0702 11.4284 37.5215 10.8208 37.5215 10.1319V4.875C37.5215 4.01203 36.822 3.3125 35.959 3.3125Z" fill="#F58634"/>
<path d="M20.334 40.5C16.8964 40.5 13.5359 39.6992 10.6159 38.1843C9.02781 37.3603 7.56523 36.3234 6.27148 35.112V36.125C6.27148 36.988 5.57195 37.6875 4.70898 37.6875C3.84602 37.6875 3.14648 36.988 3.14648 36.125V30.8681C3.14648 30.1792 3.59766 29.5716 4.25711 29.3723C4.91641 29.1732 5.62867 29.4292 6.01008 30.003C9.12516 34.688 14.346 37.375 20.334 37.375C29.7966 37.375 37.209 29.9627 37.209 20.5C37.209 19.5381 37.1291 18.5736 36.9712 17.6336C36.8285 16.7825 37.4026 15.9769 38.2537 15.8341C39.105 15.6912 39.9104 16.2654 40.0532 17.1165C40.2395 18.2269 40.334 19.3653 40.334 20.5C40.334 31.7149 31.549 40.5 20.334 40.5Z" fill="#F58634"/>
</g>
<defs>
<clipPath id="clip0_792_4462">
<rect width="40" height="40" fill="white" transform="translate(0.333984 0.5)"/>
</clipPath>
</defs>
</svg>
