<svg width="40" height="41" viewBox="0 0 40 41" fill="none" xmlns="http://www.w3.org/2000/svg">
<path d="M30.21 24.2815C27.4298 24.2815 25.168 26.5433 25.168 29.3235C25.168 32.1038 27.4298 34.3656 30.21 34.3656C32.9907 34.3656 35.252 32.1038 35.252 29.3235C35.252 26.5433 32.9902 24.2815 30.21 24.2815ZM30.21 31.8445C28.8197 31.8445 27.689 30.7138 27.689 29.3235C27.689 27.9332 28.8197 26.8025 30.21 26.8025C31.6003 26.8025 32.731 27.9332 32.731 29.3235C32.731 30.7139 31.6003 31.8445 30.21 31.8445Z" fill="#F58634"/>
<path d="M12.9834 24.2815C10.2032 24.2815 7.94141 26.5433 7.94141 29.3235C7.94141 32.1038 10.2032 34.3656 12.9834 34.3656C15.7637 34.3656 18.0255 32.1038 18.0255 29.3235C18.0255 26.5433 15.7637 24.2815 12.9834 24.2815ZM12.9834 31.8445C11.5931 31.8445 10.4624 30.7138 10.4624 29.3235C10.4624 27.9332 11.5931 26.8025 12.9834 26.8025C14.3734 26.8025 15.5045 27.9332 15.5045 29.3235C15.5045 30.7139 14.3737 31.8445 12.9834 31.8445Z" fill="#F58634"/>
<path d="M33.605 9.84941C33.3907 9.42379 32.955 9.15527 32.4785 9.15527H25.8398V11.6763H31.7012L35.1335 18.5032L37.3865 17.3704L33.605 9.84941Z" fill="#F58634"/>
<path d="M26.4284 28.1051H16.8906V30.6261H26.4284V28.1051Z" fill="#F58634"/>
<path d="M9.20047 28.105H4.83078C4.13453 28.105 3.57031 28.6693 3.57031 29.3654C3.57031 30.0617 4.13461 30.6259 4.83078 30.6259H9.20055C9.8968 30.6259 10.461 30.0616 10.461 29.3654C10.461 28.6692 9.89672 28.105 9.20047 28.105Z" fill="#F58634"/>
<path d="M39.7341 20.399L37.2548 17.2057C37.0166 16.8981 36.6489 16.7183 36.2594 16.7183H27.0997V7.89475C27.0997 7.1985 26.5354 6.63428 25.8392 6.63428H4.83078C4.13453 6.63428 3.57031 7.19857 3.57031 7.89475C3.57031 8.59092 4.13461 9.15521 4.83078 9.15521H24.5787V17.9787C24.5787 18.675 25.143 19.2392 25.8391 19.2392H35.6421L37.4778 21.6039V28.1047H33.9904C33.2941 28.1047 32.7299 28.669 32.7299 29.3652C32.7299 30.0615 33.2942 30.6257 33.9904 30.6257H38.7383C39.4345 30.6257 39.9987 30.0614 39.9988 29.3652V21.1721C39.9988 20.8922 39.9055 20.62 39.7341 20.399Z" fill="#F58634"/>
<path d="M9.11742 21.7185H3.31906C2.62281 21.7185 2.05859 22.2828 2.05859 22.979C2.05859 23.6752 2.62289 24.2394 3.31906 24.2394H9.11734C9.81359 24.2394 10.3778 23.6751 10.3778 22.979C10.3779 22.2828 9.81359 21.7185 9.11742 21.7185Z" fill="#F58634"/>
<path d="M12.0168 16.7605H1.26047C0.564297 16.7605 0 17.3248 0 18.021C0 18.7173 0.564297 19.2815 1.26047 19.2815H12.0168C12.713 19.2815 13.2773 18.7172 13.2773 18.021C13.2773 17.3248 12.713 16.7605 12.0168 16.7605Z" fill="#F58634"/>
<path d="M14.0754 11.8025H3.31906C2.62281 11.8025 2.05859 12.3668 2.05859 13.063C2.05859 13.7592 2.62289 14.3234 3.31906 14.3234H14.0754C14.7716 14.3234 15.3359 13.7591 15.3359 13.063C15.3359 12.3668 14.7716 11.8025 14.0754 11.8025Z" fill="#F58634"/>
</svg>
