<svg width="41" height="41" viewBox="0 0 41 41" fill="none" xmlns="http://www.w3.org/2000/svg">
<g clip-path="url(#clip0_792_5029)">
<path d="M35.9795 3.3125H11.6045C9.0198 3.3125 6.91699 5.41531 6.91699 8C6.91699 8.86297 7.61652 9.5625 8.47949 9.5625C9.34246 9.5625 10.042 8.86297 10.042 8C10.042 7.13844 10.7429 6.4375 11.6045 6.4375H35.9795C36.8411 6.4375 37.542 7.13844 37.542 8V23.625C37.542 24.4866 36.8411 25.1875 35.9795 25.1875H34.417V17.375C34.417 14.7903 32.3142 12.6875 29.7295 12.6875H5.35449C2.7698 12.6875 0.666992 14.7903 0.666992 17.375V33C0.666992 35.5847 2.7698 37.6875 5.35449 37.6875H29.7295C32.3142 37.6875 34.417 35.5847 34.417 33V28.3125H35.9795C38.5642 28.3125 40.667 26.2097 40.667 23.625V8C40.667 5.41531 38.5642 3.3125 35.9795 3.3125ZM31.292 33C31.292 33.8616 30.5911 34.5625 29.7295 34.5625H5.35449C4.49293 34.5625 3.79199 33.8616 3.79199 33V17.375C3.79199 16.5134 4.49293 15.8125 5.35449 15.8125H29.7295C30.5911 15.8125 31.292 16.5134 31.292 17.375V18.9375H8.47949C7.61652 18.9375 6.91699 19.637 6.91699 20.5C6.91699 21.363 7.61652 22.0625 8.47949 22.0625H31.292V33Z" fill="#F58634"/>
<path d="M26.6045 31.4375H20.3545C19.4915 31.4375 18.792 30.738 18.792 29.875C18.792 29.012 19.4915 28.3125 20.3545 28.3125H26.6045C27.4675 28.3125 28.167 29.012 28.167 29.875C28.167 30.738 27.4675 31.4375 26.6045 31.4375Z" fill="#F58634"/>
</g>
<defs>
<clipPath id="clip0_792_5029">
<rect width="40" height="40" fill="white" transform="translate(0.666992 0.5)"/>
</clipPath>
</defs>
</svg>
